<svg xmlns="http://www.w3.org/2000/svg" width="24" height="24" viewBox="0 0 24 24">
  <g id="cloud" transform="translate(-16 -18)">
    <rect id="Rectangle-Copy-51" width="24" height="24" transform="translate(40 42) rotate(180)" fill="none"/>
    <path id="Path_68299" data-name="Path 68299" d="M305.91,420.459a4.962,4.962,0,0,0-5.825-3.01,6.224,6.224,0,1,0-5.949,9.72,1.63,1.63,0,0,0,.417.055h6.314c.052,0,.1,0,.154-.008.088.005.177.008.268.008a4.962,4.962,0,0,0,4.621-6.765Zm-1.452,3.193a3.461,3.461,0,0,1-3.408,2.063l-.048,0a.84.84,0,0,0-.135.011h-6.314l-.032-.005a.717.717,0,0,0-.137-.031,4.724,4.724,0,1,1,4.579-7.218l.15.253a.752.752,0,0,0,.917.315,3.461,3.461,0,0,1,4.428,4.614Z" transform="translate(-268.75 -390.776)" fill="#fff"/>
  </g>
</svg>
