<svg xmlns="http://www.w3.org/2000/svg" width="24" height="24" viewBox="0 0 24 24">
  <g id="Group_20163" data-name="Group 20163" transform="translate(-1508 -120)">
    <rect id="Rectangle_5196" data-name="Rectangle 5196" width="24" height="24" transform="translate(1508 120)" fill="none"/>
    <g id="Group_20162" data-name="Group 20162" transform="translate(1507.75 121)">
      <path id="Path_68297" data-name="Path 68297" d="M12.25,8.5A1.75,1.75,0,1,0,14,10.251,1.752,1.752,0,0,0,12.25,8.5Zm0,5a3.25,3.25,0,1,1,3.25-3.249A3.253,3.253,0,0,1,12.25,13.5Z" fill="#fff" fill-rule="evenodd" opacity="0.5"/>
      <g id="Group_20162-2" data-name="Group 20162">
        <path id="Path_68298" data-name="Path 68298" d="M12.25,3.5A6.79,6.79,0,0,0,5.5,10.313c0,4.779,5.624,9.435,6.75,9.683,1.126-.249,6.75-4.905,6.75-9.683A6.79,6.79,0,0,0,12.25,3.5Zm0,18C10.455,21.5,4,15.948,4,10.313a8.25,8.25,0,1,1,16.5,0C20.5,15.948,14.043,21.5,12.25,21.5Z" fill="#fff" fill-rule="evenodd"/>
      </g>
    </g>
  </g>
</svg>
