<svg xmlns="http://www.w3.org/2000/svg" width="24" height="24" viewBox="0 0 24 24">
  <defs>
    <style>
      .cls-1 {
        fill: none;
      }

      .cls-2 {
        fill: #130f26;
        fill-rule: evenodd;
      }
    </style>
  </defs>
  <g id="Group_19873" data-name="Group 19873" transform="translate(-1131 -510)">
    <rect id="Rectangle_5042" data-name="Rectangle 5042" class="cls-1" width="24" height="24" transform="translate(1131 510)"/>
    <g id="Group_24927" data-name="Group 24927" transform="translate(1134 513)">
      <g id="Group_24926" data-name="Group 24926" transform="translate(1 1)">
        <path id="Path_166227" data-name="Path 166227" class="cls-2" d="M4.8,14.9a3.459,3.459,0,0,1,1.27.337,6.889,6.889,0,0,0,7.8-11.107,6.889,6.889,0,0,0-9.738,0A6.918,6.918,0,0,0,2.753,11.9,3.515,3.515,0,0,1,3.1,13.191a4.025,4.025,0,0,1-.281,1.261c-.109.319-.273.8-.167.905s.587-.062.907-.171A4.065,4.065,0,0,1,4.8,14.9ZM8.983,17a7.976,7.976,0,0,1-3.354-.736,2.664,2.664,0,0,0-.823-.246,3.226,3.226,0,0,0-.89.224c-.651.223-1.461.5-2.06-.1s-.322-1.405-.1-2.055a3.2,3.2,0,0,0,.222-.9,2.615,2.615,0,0,0-.251-.845,8.027,8.027,0,0,1,1.615-9A8,8,0,1,1,14.66,14.66,8.027,8.027,0,0,1,8.983,17Z" transform="translate(-1 -1)"/>
      </g>
      <path id="Path_166228" data-name="Path 166228" class="cls-2" d="M15.44,12.652a.744.744,0,0,1-.007-1.489h.007a.744.744,0,0,1,0,1.489Z" transform="translate(-3.5 -2.597)"/>
      <path id="Path_166229" data-name="Path 166229" class="cls-2" d="M11.431,12.652a.744.744,0,0,1-.007-1.489h.007a.744.744,0,1,1,0,1.489Z" transform="translate(-2.475 -2.597)"/>
      <path id="Path_166230" data-name="Path 166230" class="cls-2" d="M7.422,12.652a.744.744,0,0,1-.007-1.489h.007a.744.744,0,0,1,0,1.489Z" transform="translate(-1.45 -2.597)"/>
    </g>
  </g>
</svg>
