<svg xmlns="http://www.w3.org/2000/svg" width="16" height="14.512" viewBox="0 0 16 14.512">
  <defs>
    <style>
      .cls-1 {
        fill: #130f26;
        fill-rule: evenodd;
      }
    </style>
  </defs>
  <g id="Group_19851" data-name="Group 19851" transform="translate(-1 -2)">
    <path id="Path_2045" data-name="Path 2045" class="cls-1" d="M10.074,12.029a2.264,2.264,0,0,1-1.41-.493L5.326,8.844a.558.558,0,1,1,.7-.869l3.335,2.688a1.149,1.149,0,0,0,1.431,0l3.3-2.684a.558.558,0,1,1,.7.866l-3.307,2.688A2.276,2.276,0,0,1,10.074,12.029Z" transform="translate(-1.054 -1.497)"/>
    <g id="Group_19850" data-name="Group 19850" transform="translate(1 2)">
      <path id="Path_2046" data-name="Path 2046" class="cls-1" d="M5.345,15.4h7.308s.007,0,.012,0a3.013,3.013,0,0,0,2.18-.88,3.757,3.757,0,0,0,1.039-2.7V6.7a3.31,3.31,0,0,0-3.231-3.587H5.347A3.31,3.31,0,0,0,2.116,6.7v5.111a3.76,3.76,0,0,0,1.039,2.7,3.014,3.014,0,0,0,2.18.88Zm-.013,1.116a4.111,4.111,0,0,1-2.966-1.206A4.868,4.868,0,0,1,1,11.814V6.7A4.436,4.436,0,0,1,5.347,2h7.306A4.436,4.436,0,0,1,17,6.7v5.111a4.868,4.868,0,0,1-1.367,3.492,4.114,4.114,0,0,1-2.968,1.206H5.333Z" transform="translate(-1 -2)"/>
    </g>
  </g>
</svg>
