<svg xmlns="http://www.w3.org/2000/svg" width="16" height="16" viewBox="0 0 16 16">
  <defs>
    <style>
      .cls-1 {
        fill: #130f26;
        fill-rule: evenodd;
      }
    </style>
  </defs>
  <g id="Group_24830" data-name="Group 24830" transform="translate(-2 -2)">
    <path id="Path_166214" data-name="Path 166214" class="cls-1" d="M3.842,4.389s-.037.041-.087.089a1.756,1.756,0,0,0-.584,1.363c-.006,1.117.728,3.191,4.265,6.726,3.52,3.518,5.591,4.261,6.71,4.261h.016a1.76,1.76,0,0,0,1.364-.584,1.793,1.793,0,0,1,.133-.126c.777-.782,1.175-1.364,1.171-1.737s-.479-.831-1.134-1.454c-.208-.2-.435-.414-.674-.652-.619-.617-.926-.512-1.6-.275-.933.327-2.213.772-4.2-1.218S7.675,7.514,8,6.581c.236-.674.343-.982-.276-1.6-.243-.242-.46-.471-.661-.682C6.445,3.647,6,3.176,5.62,3.17H5.614c-.374,0-.955.4-1.776,1.221ZM14.146,18c-1.945,0-4.481-1.548-7.538-4.6S1.989,7.784,2,5.835A2.907,2.907,0,0,1,2.936,3.64c.013-.016.059-.061.074-.076C4.13,2.444,4.884,1.991,5.635,2c.872.012,1.492.664,2.277,1.491.194.2.405.427.64.661a2.309,2.309,0,0,1,.554,2.815c-.284.814-.53,1.516.942,2.988s2.176,1.226,2.987.94a2.308,2.308,0,0,1,2.815.553c.231.231.45.439.652.632.83.789,1.486,1.413,1.5,2.287.009.745-.443,1.5-1.561,2.623A3,3,0,0,1,14.168,18Z" transform="translate(0 0)"/>
  </g>
</svg>
