<svg xmlns="http://www.w3.org/2000/svg" width="112" height="19.238" viewBox="0 0 112 19.238">
  <g id="Group_20150" data-name="Group 20150" transform="translate(-1170.422 336.949)">
    <path id="Path_2035" data-name="Path 2035" d="M1223.246-323.656l-2.642-10.173a4.072,4.072,0,0,0-4.036-3.12,4.062,4.062,0,0,0-4.031,3.12l-2.642,10.173a4.881,4.881,0,0,1-4.72,3.651h-.542v2.171h.542a7.052,7.052,0,0,0,6.793-5.181h9.207a7.046,7.046,0,0,0,6.793,5.181h.542v-2.171h-.542A4.881,4.881,0,0,1,1223.246-323.656Zm-10.715-1.53,2.105-8.095a1.956,1.956,0,0,1,1.932-1.5,1.961,1.961,0,0,1,1.937,1.5l2.1,8.095Z" transform="translate(-17.168)" fill="#1f1f1f"/>
    <path id="Path_2036" data-name="Path 2036" d="M1299.514-322.114a2.259,2.259,0,0,1-1.618,2.218,2.493,2.493,0,0,1-.756.119,2.2,2.2,0,0,1-1.851-.98L1285.2-334.849a4.423,4.423,0,0,0-3.625-1.889,4.628,4.628,0,0,0-1.411.223,4.432,4.432,0,0,0-3.125,4.286v8.2a4.132,4.132,0,0,1-4.127,4.127,3.882,3.882,0,0,1-3.41-2.025c-.008-.014-.019-.027-.027-.042a9.383,9.383,0,0,0,1.571-5.2,9.451,9.451,0,0,0-9.441-9.44,9.451,9.451,0,0,0-9.44,9.44,9.451,9.451,0,0,0,9.44,9.441,9.4,9.4,0,0,0,6.4-2.518,6.046,6.046,0,0,0,4.909,2.518,6.3,6.3,0,0,0,6.3-6.3v-8.2a2.26,2.26,0,0,1,1.618-2.219,2.507,2.507,0,0,1,.756-.118,2.2,2.2,0,0,1,1.851.981l10.085,14.091a4.424,4.424,0,0,0,3.624,1.889,4.591,4.591,0,0,0,1.411-.224,4.431,4.431,0,0,0,3.125-4.285v-13.956h-2.17Zm-31.505-1.608a6.044,6.044,0,0,0-3.817-1.361h-3.123v2.17h3.123a3.875,3.875,0,0,1,2.507.926,7.246,7.246,0,0,1-5.088,2.085,7.278,7.278,0,0,1-7.27-7.27,7.278,7.278,0,0,1,7.27-7.27,7.279,7.279,0,0,1,7.27,7.27A7.224,7.224,0,0,1,1268.009-323.722Z" transform="translate(-41.025 -0.106)" fill="#1f1f1f"/>
    <path id="Path_2037" data-name="Path 2037" d="M1373.253-335.4l-5.135,7.133L1361.8-335.4h-2.9l7.917,8.938-3.8,5.274a5.008,5.008,0,0,1-4.052,2.075h-2.224v2.17h2.224a7.175,7.175,0,0,0,5.812-2.976l11.145-15.481Z" transform="translate(-93.504 -0.779)" fill="#1f1f1f"/>
    <path id="Path_2038" data-name="Path 2038" d="M1188.876-334.854v-2.09h-18.454v2.09h8.182v16.965h2.091v-16.965Z" transform="translate(0 -0.003)" fill="#1f1f1f"/>
  </g>
</svg>
