<svg xmlns="http://www.w3.org/2000/svg" xmlns:xlink="http://www.w3.org/1999/xlink" width="457" height="314" viewBox="0 0 457 314">
  <defs>
    <clipPath id="clip-path">
      <path id="Rectangle_5228" data-name="Rectangle 5228" d="M0,0H457a0,0,0,0,1,0,0V282a32,32,0,0,1-32,32H0a0,0,0,0,1,0,0V0A0,0,0,0,1,0,0Z" transform="translate(1163 680)" fill="#fff"/>
    </clipPath>
  </defs>
  <g id="Mask_Group_15" data-name="Mask Group 15" transform="translate(-1163 -680)" clip-path="url(#clip-path)">
    <g id="Group_24846" data-name="Group 24846" transform="translate(976.329 399.151)">
      <g id="Group_24845" data-name="Group 24845">
        <path id="Path_166215" data-name="Path 166215" d="M481.66,594.849l-.168-77.5A52.228,52.228,0,0,1,532.9,465.01l.7,0A49.694,49.694,0,0,1,570.26,481.1a51.177,51.177,0,0,1,6.753,9.262l75.1,104.488h9.312L579.8,481.263l-2.808-3.943a56.907,56.907,0,0,0-43.4-19.889c-1.3,0-2.546.051-3.89.154a59.866,59.866,0,0,0-55.785,59.779l.169,77.485Z" fill="#ffce00"/>
        <path id="Path_166216" data-name="Path 166216" d="M748.13,594.849l-23.08-138.2-7.576.016,23.077,138.184Z" fill="#ffce00"/>
        <path id="Path_166217" data-name="Path 166217" d="M239.918,594.849l-.044-97.541c-.039-17.807,11.738-27.882,22.8-31.386a34.052,34.052,0,0,1,10.559-1.689c10.593-.023,19.943,4.881,26.312,13.789l84.008,116.827h9.311l-87.2-121.271a39.629,39.629,0,0,0-32.55-16.921,41.011,41.011,0,0,0-12.745,2.062A39.855,39.855,0,0,0,232.3,497.325l.045,97.524Z" fill="#ffce00"/>
        <path id="Path_166218" data-name="Path 166218" d="M688.82,320.5a39.264,39.264,0,0,1-5.457,46.7,41.059,41.059,0,0,1-10.01,7.948,39.069,39.069,0,0,1-36.148,1.157L484.959,305.338a50.443,50.443,0,0,0-10.274-4.705,48.992,48.992,0,0,0-39.276,3.849l-.6.342a51.488,51.488,0,0,0-18.949,69.8l42.718,75.738a39.29,39.29,0,0,1-5.5,46.73,40.88,40.88,0,0,1-9.963,7.922,39.071,39.071,0,0,1-36.149,1.157L240.455,428.6c-9.773-4.586-20.177-4.291-29.273.84a33.552,33.552,0,0,0-8.263,6.546c-7.82,8.349-13.085,22.693-4.46,37.984l33.857,62.68-.018,12.206-40.344-71.217a39.29,39.29,0,0,1,5.5-46.732,40.394,40.394,0,0,1,9.963-7.921,39.066,39.066,0,0,1,36.148-1.157l166.5,77.575c9.775,4.586,20.178,4.291,29.274-.839a33.593,33.593,0,0,0,8.27-6.555c7.8-8.376,13.048-22.735,4.452-37.975l-42.717-75.738a59.018,59.018,0,0,1,19.119-78.308c1.106-.737,2.154-1.379,3.27-2.009a56.1,56.1,0,0,1,46.907-3.838l4.316,2.035,157.354,73.362c9.834,4.565,20.242,4.257,29.321-.864a33.406,33.406,0,0,0,8.214-6.517c7.823-8.349,13.089-22.693,4.463-37.987L659.8,284.241l6.505-3.669Z" fill="#1f1f1f"/>
        <path id="Path_166219" data-name="Path 166219" d="M431.8,594.849h11.726l-32.779-32.637c-13.735-13.676-12.438-30.565-6.635-41.835a37.192,37.192,0,0,1,6.854-9.47c8.163-8.2,19.169-11.631,30.969-9.67l200.83,32.817a43.281,43.281,0,0,0,38.206-12.07,44.793,44.793,0,0,0,8.251-11.435,43.528,43.528,0,0,0-8.14-51.489l-35.985-35.829-5.837,5.863,35.985,35.829c13.782,13.723,12.467,30.6,6.63,41.847a37.164,37.164,0,0,1-6.85,9.459c-8.163,8.2-19.17,11.632-30.968,9.67l-200.83-32.817a43.282,43.282,0,0,0-38.206,12.07,45.279,45.279,0,0,0-8.251,11.436,43.526,43.526,0,0,0,8.139,51.487Z" fill="#b976ff"/>
        <path id="Path_166220" data-name="Path 166220" d="M532.7,594.849a31.485,31.485,0,0,1,17.652-15.087L722.942,516.88A39.066,39.066,0,0,0,747.685,490.5a40.411,40.411,0,0,0,1.444-12.646,39.292,39.292,0,0,0-29.152-36.936L675.822,428.61l-2.005,7.194,44.154,12.309c16.911,4.714,23.331,18.579,23.705,30.012a33.555,33.555,0,0,1-1.214,10.472c-2.8,10.06-9.952,17.625-20.106,21.293L547.768,572.772A39.183,39.183,0,0,0,524.5,594.849Z" fill="#00ffb0"/>
      </g>
    </g>
  </g>
</svg>
