<svg xmlns="http://www.w3.org/2000/svg" width="24" height="24" viewBox="0 0 24 24">
  <g id="Group_25028" data-name="Group 25028" transform="translate(-1329 -196)">
    <rect id="Rectangle_5282" data-name="Rectangle 5282" width="24" height="24" transform="translate(1329 196)" fill="none"/>
    <g id="Group_23125" data-name="Group 23125" transform="translate(1335 202.313)">
      <path id="Path_166166" data-name="Path 166166" d="M13.7,13.686H10.846a2.594,2.594,0,0,1-2.59-2.591v-6.5A2.594,2.594,0,0,1,10.846,2h2.848a2.6,2.6,0,0,1,2.592,2.592v.545a.438.438,0,1,1-.876,0V4.592a1.717,1.717,0,0,0-1.716-1.716H10.846A1.716,1.716,0,0,0,9.132,4.592v6.5a1.716,1.716,0,0,0,1.714,1.715H13.7A1.711,1.711,0,0,0,15.41,11.1V10.55a.438.438,0,0,1,.876,0V11.1A2.588,2.588,0,0,1,13.7,13.686Z" transform="translate(-8.256 -2)" fill="#130f26" fill-rule="evenodd"/>
      <g id="Group_23047" data-name="Group 23047" transform="translate(4.088 5.405)">
        <path id="Path_166167" data-name="Path 166167" d="M8.937,12.126H1.9a.438.438,0,1,1,0-.876H8.937a.438.438,0,1,1,0,.876Z" transform="translate(-1.463 -11.25)" fill="#130f26" fill-rule="evenodd"/>
      </g>
      <g id="Group_23048" data-name="Group 23048" transform="translate(9.413 3.702)">
        <path id="Path_166168" data-name="Path 166168" d="M1.9,12.619a.438.438,0,0,1-.309-.748l1.4-1.394-1.4-1.393a.438.438,0,1,1,.618-.621l1.711,1.7a.437.437,0,0,1,0,.621l-1.711,1.7A.436.436,0,0,1,1.9,12.619Z" transform="translate(-1.463 -8.335)" fill="#130f26" fill-rule="evenodd"/>
      </g>
    </g>
  </g>
</svg>
