<svg xmlns="http://www.w3.org/2000/svg" width="24" height="24" viewBox="0 0 24 24">
  <g id="Group_25026" data-name="Group 25026" transform="translate(-1329 -277)">
    <g id="Group_23043" data-name="Group 23043" transform="translate(1333 280.105)">
      <g id="Group_23042" data-name="Group 23042" transform="translate(2 2)">
        <path id="Path_166161" data-name="Path 166161" d="M5.237,11.608a1.638,1.638,0,0,1,.424.055,1.66,1.66,0,0,1,1,.772,1.6,1.6,0,0,1,.221.8.726.726,0,0,0,.724.729h.78a.725.725,0,0,0,.724-.72,1.651,1.651,0,0,1,1.66-1.655,1.7,1.7,0,0,1,.8.22.728.728,0,0,0,.989-.262l.413-.689a.719.719,0,0,0-.265-.978,1.641,1.641,0,0,1-.773-1.007A1.662,1.662,0,0,1,12.1,7.614a1.642,1.642,0,0,1,.6-.6.725.725,0,0,0,.259-.982.347.347,0,0,1-.022-.043l-.365-.632a.725.725,0,0,0-.987-.267A1.651,1.651,0,0,1,9.336,4.5a1.589,1.589,0,0,1-.223-.8.742.742,0,0,0-.2-.544.727.727,0,0,0-.52-.218h-.78a.716.716,0,0,0-.718.721A1.666,1.666,0,0,1,5.234,5.3a1.605,1.605,0,0,1-.808-.225.725.725,0,0,0-.981.271l-.421.693a.723.723,0,0,0,.269.977,1.657,1.657,0,0,1,0,2.87.719.719,0,0,0-.262.98l.393.677a.726.726,0,0,0,.992.289A1.633,1.633,0,0,1,5.237,11.608Zm3.152,3.286h-.78a1.659,1.659,0,0,1-1.658-1.657.67.67,0,0,0-.094-.331.712.712,0,0,0-.981-.268A1.657,1.657,0,0,1,2.61,12l-.389-.67a1.654,1.654,0,0,1,.6-2.256.724.724,0,0,0,0-1.254,1.66,1.66,0,0,1-.6-2.261l.422-.693a1.656,1.656,0,0,1,2.254-.6.681.681,0,0,0,.343.1.726.726,0,0,0,.718-.713A1.65,1.65,0,0,1,7.609,2h.78a1.655,1.655,0,0,1,1.657,1.7.665.665,0,0,0,.094.317.717.717,0,0,0,.985.258,1.662,1.662,0,0,1,2.265.608l.388.671a.529.529,0,0,1,.026.054,1.663,1.663,0,0,1-.628,2.206.711.711,0,0,0-.264.262.73.73,0,0,0-.075.549.71.71,0,0,0,.336.437,1.652,1.652,0,0,1,.6,2.263l-.413.688a1.658,1.658,0,0,1-2.257.6.741.741,0,0,0-.347-.1h0a.72.72,0,0,0-.5.21.711.711,0,0,0-.21.511A1.661,1.661,0,0,1,8.389,14.894Z" transform="translate(-2 -2)" fill="#130f26" fill-rule="evenodd"/>
      </g>
      <path id="Path_166162" data-name="Path 166162" d="M10.366,9.908a1.174,1.174,0,1,0,1.174,1.174A1.175,1.175,0,0,0,10.366,9.908Zm0,3.28a2.107,2.107,0,1,1,2.107-2.106A2.109,2.109,0,0,1,10.366,13.188Z" transform="translate(-2.364 -2.634)" fill="#130f26" fill-rule="evenodd"/>
    </g>
    <rect id="Rectangle_5280" data-name="Rectangle 5280" width="24" height="24" transform="translate(1329 277)" fill="none"/>
  </g>
</svg>
