<svg xmlns="http://www.w3.org/2000/svg" width="24" height="24" viewBox="0 0 24 24">
  <g id="Group_25030" data-name="Group 25030" transform="translate(-1310 -139)">
    <rect id="Rectangle_5278" data-name="Rectangle 5278" width="24" height="24" transform="translate(1310 139)" fill="none"/>
    <g id="Group_24714" data-name="Group 24714" transform="translate(1315 142.232)">
      <path id="Path_166199" data-name="Path 166199" d="M13.268,6.438a.419.419,0,0,1-.419-.419V4.668a.419.419,0,1,1,.837,0V6.02A.419.419,0,0,1,13.268,6.438Z" transform="translate(-5.236 -0.111)" fill="#130f26" fill-rule="evenodd"/>
      <path id="Path_166200" data-name="Path 166200" d="M13.268,19.728a.419.419,0,0,1-.419-.419V18.18a.419.419,0,1,1,.837,0v1.129A.419.419,0,0,1,13.268,19.728Z" transform="translate(-5.236 -6.081)" fill="#130f26" fill-rule="evenodd"/>
      <path id="Path_166201" data-name="Path 166201" d="M13.268,13.032a.419.419,0,0,1-.419-.419V9.923a.419.419,0,1,1,.837,0v2.691A.419.419,0,0,1,13.268,13.032Z" transform="translate(-5.236 -2.432)" fill="#130f26" fill-rule="evenodd"/>
      <g id="Group_24713" data-name="Group 24713" transform="translate(1 4)">
        <path id="Path_166202" data-name="Path 166202" d="M1.837,10.449v1.082a1.413,1.413,0,0,0,1.422,1.4h7.481a1.413,1.413,0,0,0,1.422-1.4V10.449a1.615,1.615,0,0,1,0-3.129V6.236a1.413,1.413,0,0,0-1.422-1.4H3.26a1.413,1.413,0,0,0-1.422,1.4V7.363A1.563,1.563,0,0,1,3.052,8.884,1.624,1.624,0,0,1,1.837,10.449Zm8.9,3.319H3.259A2.251,2.251,0,0,1,1,11.531V10.084a.419.419,0,0,1,.419-.419.79.79,0,0,0,.8-.781.751.751,0,0,0-.8-.735A.419.419,0,0,1,1,7.731V6.236A2.251,2.251,0,0,1,3.26,4h7.48A2.251,2.251,0,0,1,13,6.236V7.684a.419.419,0,0,1-.419.419.782.782,0,1,0,0,1.563.419.419,0,0,1,.419.419v1.447A2.251,2.251,0,0,1,10.741,13.767Z" transform="translate(-1 -4)" fill="#130f26" fill-rule="evenodd"/>
      </g>
    </g>
  </g>
</svg>
