<svg xmlns="http://www.w3.org/2000/svg" width="24" height="24" viewBox="0 0 24 24">
  <g id="Group_25029" data-name="Group 25029" transform="translate(-1310 -139)">
    <rect id="Rectangle_5283" data-name="Rectangle 5283" width="24" height="24" transform="translate(1310 139)" fill="none"/>
    <g id="Group_23127" data-name="Group 23127" transform="translate(1314 143)">
      <g id="Group_23126" data-name="Group 23126" transform="translate(2 9.474)">
        <path id="Path_166195" data-name="Path 166195" d="M6.726,15.356c-2.539,0-3.826.436-3.826,1.3s1.288,1.308,3.826,1.308,3.826-.436,3.826-1.295S9.265,15.356,6.726,15.356Zm0,3.5C5.557,18.86,2,18.86,2,16.652c0-1.968,2.7-2.2,4.726-2.2,1.169,0,4.726,0,4.726,2.209C11.452,18.632,8.755,18.86,6.726,18.86Z" transform="translate(-2 -14.456)" fill="#130f26" fill-rule="evenodd"/>
      </g>
      <path id="Path_166196" data-name="Path 166196" d="M7.75,2.9A2.293,2.293,0,0,0,5.46,5.191,2.28,2.28,0,0,0,7.733,7.482,2.291,2.291,0,1,0,7.75,2.9Zm0,5.482H7.732A3.191,3.191,0,0,1,7.75,2a3.191,3.191,0,1,1,0,6.382Z" transform="translate(-1.024)" fill="#130f26" fill-rule="evenodd"/>
      <path id="Path_166197" data-name="Path 166197" d="M18.9,11.225a.45.45,0,0,1-.45-.45V8.369a.45.45,0,1,1,.9,0v2.407A.45.45,0,0,1,18.9,11.225Z" transform="translate(-6.582 -2.367)" fill="#130f26" fill-rule="evenodd"/>
      <path id="Path_166198" data-name="Path 166198" d="M19.314,10.824H16.86a.45.45,0,1,1,0-.9h2.454a.45.45,0,1,1,0,.9Z" transform="translate(-5.764 -3.17)" fill="#130f26" fill-rule="evenodd"/>
    </g>
  </g>
</svg>
