<svg xmlns="http://www.w3.org/2000/svg" width="24" height="24" viewBox="0 0 24 24">
  <g id="Group_25025" data-name="Group 25025" transform="translate(-1342 -296)">
    <rect id="Rectangle_5279" data-name="Rectangle 5279" width="24" height="24" transform="translate(1342 296)" fill="none"/>
    <g id="Group_23040" data-name="Group 23040" transform="translate(1345 300)">
      <g id="Group_22904" data-name="Group 22904" transform="translate(3 1)">
        <path id="Path_166111" data-name="Path 166111" d="M9,1.973a3.722,3.722,0,0,0-3.848,3.37,4.23,4.23,0,0,1-.705,2.522,2.565,2.565,0,0,0-.475,1.549c.108,1.224.916,1.866,5.028,1.866,4.089,0,4.922-.671,5.03-1.909a2.539,2.539,0,0,0-.477-1.507,4.23,4.23,0,0,1-.705-2.522A3.722,3.722,0,0,0,9,1.973ZM9,12.255c-3.034,0-5.775-.214-6-2.8a3.553,3.553,0,0,1,.612-2.092,3.319,3.319,0,0,0,.566-2.022A4.656,4.656,0,0,1,9,1,4.656,4.656,0,0,1,13.82,5.343a3.319,3.319,0,0,0,.566,2.022A3.522,3.522,0,0,1,15,9.415C14.774,12.04,12.033,12.255,9,12.255Z" transform="translate(-3 -1)" fill="#1f1f1f" fill-rule="evenodd"/>
      </g>
      <path id="Path_166112" data-name="Path 166112" d="M11.081,21.572h0a2.6,2.6,0,0,1-1.938-.9.486.486,0,0,1,.723-.65,1.637,1.637,0,0,0,1.215.58h0a1.642,1.642,0,0,0,1.22-.581.487.487,0,0,1,.723.651A2.605,2.605,0,0,1,11.081,21.572Z" transform="translate(-2.113 -6.623)" fill="#1f1f1f" fill-rule="evenodd"/>
    </g>
  </g>
</svg>
