<svg xmlns="http://www.w3.org/2000/svg" width="24" height="24" viewBox="0 0 24 24">
  <g id="Group_25027" data-name="Group 25027" transform="translate(-1353 -377)">
    <rect id="Rectangle_5281" data-name="Rectangle 5281" width="24" height="24" transform="translate(1353 377)" fill="none"/>
    <g id="Group_23049" data-name="Group 23049" transform="translate(1357.537 381.313)">
      <path id="Path_166166" data-name="Path 166166" d="M10.841,13.686H13.7a2.594,2.594,0,0,0,2.59-2.591v-6.5A2.594,2.594,0,0,0,13.7,2H10.848A2.6,2.6,0,0,0,8.256,4.592v.545a.438.438,0,1,0,.876,0V4.592a1.717,1.717,0,0,1,1.716-1.716H13.7A1.716,1.716,0,0,1,15.41,4.592v6.5A1.716,1.716,0,0,1,13.7,12.81H10.841A1.711,1.711,0,0,1,9.132,11.1V10.55a.438.438,0,0,0-.876,0V11.1A2.588,2.588,0,0,0,10.841,13.686Z" transform="translate(-2.824)" fill="#130f26" fill-rule="evenodd"/>
      <g id="Group_23047" data-name="Group 23047" transform="translate(1.463 7.405)">
        <path id="Path_166167" data-name="Path 166167" d="M1.9,12.126H8.937a.438.438,0,1,0,0-.876H1.9a.438.438,0,0,0,0,.876Z" transform="translate(-1.463 -11.25)" fill="#130f26" fill-rule="evenodd"/>
      </g>
      <g id="Group_23048" data-name="Group 23048" transform="translate(1.463 5.702)">
        <path id="Path_166168" data-name="Path 166168" d="M3.612,12.619a.438.438,0,0,0,.309-.748l-1.4-1.394,1.4-1.393A.438.438,0,1,0,3.3,8.463l-1.711,1.7a.437.437,0,0,0,0,.621l1.711,1.7A.436.436,0,0,0,3.612,12.619Z" transform="translate(-1.463 -8.335)" fill="#130f26" fill-rule="evenodd"/>
      </g>
    </g>
  </g>
</svg>
