<svg xmlns="http://www.w3.org/2000/svg" width="24" height="24" viewBox="0 0 24 24">
  <g id="Group_25001" data-name="Group 25001" transform="translate(-238 -4)">
    <rect id="Rectangle_5055" data-name="Rectangle 5055" width="24" height="24" transform="translate(238 4)" fill="none"/>
    <g id="Group_19861" data-name="Group 19861" transform="translate(240 6)">
      <path id="Path_2050" data-name="Path 2050" d="M11.217,9.341a1.929,1.929,0,1,0,1.93,1.93A1.931,1.931,0,0,0,11.217,9.341Zm0,5.058a3.129,3.129,0,1,1,3.13-3.128A3.132,3.132,0,0,1,11.217,14.4Z" transform="translate(-1.218 -0.828)" fill="#130f26" fill-rule="evenodd"/>
      <g id="Group_19853" data-name="Group 19853" transform="translate(2 4)">
        <path id="Path_2051" data-name="Path 2051" d="M3.256,10.442C4.744,13.729,7.25,15.683,10,15.684s5.256-1.955,6.744-5.242C15.256,7.156,12.75,5.2,10,5.2S4.744,7.156,3.256,10.442ZM10,16.884h0c-3.309,0-6.28-2.322-7.949-6.206a.6.6,0,0,1,0-.474C3.718,6.322,6.69,4,10,4h0c3.309,0,6.28,2.322,7.949,6.2a.594.594,0,0,1,0,.474c-1.668,3.884-4.64,6.2-7.949,6.206Z" transform="translate(-2 -4)" fill="#130f26" fill-rule="evenodd"/>
      </g>
    </g>
  </g>
</svg>
