<svg xmlns="http://www.w3.org/2000/svg" width="64" height="64" viewBox="0 0 64 64">
  <g id="Group_19889" data-name="Group 19889" transform="translate(-300 -323)">
    <rect id="Rectangle_5065" data-name="Rectangle 5065" width="64" height="64" rx="12" transform="translate(300 323)" fill="#fff" opacity="0.35"/>
    <g id="Group_19890" data-name="Group 19890" transform="translate(320 341)">
      <path id="Path_68250" data-name="Path 68250" d="M15.622,30.235a1.1,1.1,0,0,1-.507-.122l-5.084-2.632a11.933,11.933,0,0,1-3.452-2.564A11.637,11.637,0,0,1,3.56,17.19L3.5,7.822A2.56,2.56,0,0,1,5.234,5.405l9.335-3.255a2.657,2.657,0,0,1,1.737-.01l9.37,3.144A2.554,2.554,0,0,1,27.44,7.679l.06,9.375a11.637,11.637,0,0,1-2.916,7.758,11.893,11.893,0,0,1-3.418,2.6l-5.038,2.691A1.08,1.08,0,0,1,15.622,30.235Z" transform="translate(-3.5 -2)" fill="#fff" opacity="0.4"/>
      <path id="Path_68251" data-name="Path 68251" d="M12.421,16.509a1.078,1.078,0,0,1-.756-.3l-2.706-2.6A1.019,1.019,0,0,1,8.95,12.14a1.087,1.087,0,0,1,1.508-.01L12.405,14,17.16,9.315a1.086,1.086,0,0,1,1.508-.01,1.018,1.018,0,0,1,.01,1.467l-5.5,5.428A1.073,1.073,0,0,1,12.421,16.509Z" transform="translate(-1.382 0.885)" fill="#fff"/>
    </g>
  </g>
</svg>
