<svg id="Group_12321" data-name="Group 12321" xmlns="http://www.w3.org/2000/svg" width="21.717" height="17.645" viewBox="0 0 21.717 17.645">
  <path id="twitter" d="M21.717,50.089a9.283,9.283,0,0,1-2.565.7,4.427,4.427,0,0,0,1.959-2.461,8.9,8.9,0,0,1-2.823,1.078,4.452,4.452,0,0,0-7.7,3.044,4.584,4.584,0,0,0,.1,1.015,12.6,12.6,0,0,1-9.177-4.657A4.453,4.453,0,0,0,2.88,54.762a4.4,4.4,0,0,1-2.012-.548v.049a4.473,4.473,0,0,0,3.567,4.375,4.444,4.444,0,0,1-1.167.147,3.937,3.937,0,0,1-.843-.076,4.5,4.5,0,0,0,4.16,3.1,8.946,8.946,0,0,1-5.52,1.9A8.34,8.34,0,0,1,0,63.647a12.534,12.534,0,0,0,6.83,2A12.585,12.585,0,0,0,19.5,52.976c0-.2-.007-.387-.016-.576A8.882,8.882,0,0,0,21.717,50.089Z" transform="translate(0 -48)" fill="#1da1f2"/>
</svg>
