<svg id="Group_19826" data-name="Group 19826" xmlns="http://www.w3.org/2000/svg" width="150" height="25.765" viewBox="0 0 150 25.765">
  <path id="Path_2039" data-name="Path 2039" d="M373.994,301.021a6.538,6.538,0,0,1-6.322-4.89l-3.538-13.625a5.582,5.582,0,0,0-10.805,0l-3.539,13.625a6.538,6.538,0,0,1-6.322,4.89h-.727v2.907h.727a9.444,9.444,0,0,0,9.1-6.939H364.9a9.437,9.437,0,0,0,9.1,6.939h.727v-2.907Zm-20.673-6.939,2.82-10.841a2.676,2.676,0,0,1,5.181,0l2.812,10.841Z" transform="translate(-319.918 -278.329)" fill="#fff"/>
  <path id="Path_2040" data-name="Path 2040" d="M453.687,298.126a3.025,3.025,0,0,1-2.168,2.971,3.334,3.334,0,0,1-1.012.159,2.952,2.952,0,0,1-2.479-1.313L434.522,281.07a5.922,5.922,0,0,0-4.854-2.53,6.2,6.2,0,0,0-1.89.3,5.936,5.936,0,0,0-4.185,5.74v10.983a5.533,5.533,0,0,1-5.527,5.527,5.2,5.2,0,0,1-4.568-2.712c-.011-.019-.025-.036-.035-.056a12.774,12.774,0,1,0-1.972,2.3A8.1,8.1,0,0,0,418.067,304a8.443,8.443,0,0,0,8.433-8.434V284.579a3.026,3.026,0,0,1,2.167-2.972,3.355,3.355,0,0,1,1.012-.158,2.953,2.953,0,0,1,2.479,1.314l13.507,18.872a5.924,5.924,0,0,0,4.854,2.531,6.15,6.15,0,0,0,1.89-.3,5.934,5.934,0,0,0,4.185-5.738v-18.69h-2.906Zm-50.763-16.511a9.734,9.734,0,0,1,8.569,14.357,8.094,8.094,0,0,0-5.112-1.823H402.2v2.906h4.183a5.189,5.189,0,0,1,3.357,1.24,9.734,9.734,0,1,1-6.814-16.681Z" transform="translate(-335.74 -278.399)" fill="#fff"/>
  <path id="Path_2041" data-name="Path 2041" d="M516.964,279.882l-6.877,9.553-8.459-9.553h-3.882l10.6,11.971-5.088,7.063a6.706,6.706,0,0,1-5.427,2.779h-2.979V304.6h2.979a9.61,9.61,0,0,0,7.783-3.986l14.926-20.733Z" transform="translate(-370.544 -278.846)" fill="#fff"/>
  <g id="Group_19825" data-name="Group 19825" transform="translate(0 0.004)">
    <rect id="Rectangle_5037" data-name="Rectangle 5037" width="2.799" height="24.716" transform="translate(24.716) rotate(90)" fill="#fff"/>
    <rect id="Rectangle_5038" data-name="Rectangle 5038" width="2.8" height="25.383" transform="translate(10.958 0.137)" fill="#fff"/>
  </g>
</svg>
