<svg id="Group_12322" data-name="Group 12322" xmlns="http://www.w3.org/2000/svg" width="20.761" height="20.761" viewBox="0 0 20.761 20.761">
  <g id="search" transform="translate(0 0)">
    <path id="Path_7" data-name="Path 7" d="M4.6,145.208l-.723,2.7-2.641.056a10.4,10.4,0,0,1-.076-9.693h0l2.352.431,1.03,2.337a6.2,6.2,0,0,0,.058,4.171Z" transform="translate(0 -132.661)" fill="#f4b400"/>
    <path id="Path_8" data-name="Path 8" d="M271.6,208.176a10.377,10.377,0,0,1-3.7,10.034h0l-2.962-.151-.419-2.617a6.187,6.187,0,0,0,2.662-3.159h-5.551v-4.107H271.6Z" transform="translate(-251.019 -199.735)" fill="#4285f4"/>
    <path id="Path_9" data-name="Path 9" d="M46.151,315.338h0a10.384,10.384,0,0,1-15.642-3.176l3.364-2.754a6.174,6.174,0,0,0,8.9,3.161Z" transform="translate(-29.272 -296.863)" fill="#0f9d58"/>
    <path id="Path_10" data-name="Path 10" d="M44.47,2.39,41.107,5.143a6.173,6.173,0,0,0-9.1,3.232L28.625,5.607h0A10.383,10.383,0,0,1,44.47,2.39Z" transform="translate(-27.463)" fill="#db4437"/>
  </g>
</svg>
