<svg xmlns="http://www.w3.org/2000/svg" width="64" height="64" viewBox="0 0 64 64">
  <g id="Group_19886" data-name="Group 19886" transform="translate(-300 -323)">
    <rect id="Rectangle_5065" data-name="Rectangle 5065" width="64" height="64" rx="12" transform="translate(300 323)" fill="#fff" opacity="0.35"/>
    <g id="Group_19885" data-name="Group 19885" transform="translate(320 341.667)">
      <path id="Path_68246" data-name="Path 68246" d="M26.884,19.42,25.859,11.16C25.235,8.213,23.467,7,21.782,7H8.242C6.534,7,4.707,8.128,4.177,11.16L3.14,19.42C2.291,25.484,5.414,27,9.491,27H20.545C24.61,27,27.639,24.8,26.884,19.42ZM11.129,13.865a1.213,1.213,0,1,1,1.178-1.213A1.2,1.2,0,0,1,11.129,13.865Zm6.54-1.213a1.179,1.179,0,1,0,1.178-1.213A1.2,1.2,0,0,0,17.669,12.652Z" transform="translate(-3 -0.333)" fill="#fff" fill-rule="evenodd"/>
      <path id="Path_68247" data-name="Path 68247" d="M20.3,8.366a.67.67,0,0,1-.058.3H18.324a.864.864,0,0,1-.058-.3,4.645,4.645,0,0,0-9.29,0,.865.865,0,0,1,0,.3H7.013a.865.865,0,0,1,0-.3,6.667,6.667,0,0,1,13.32,0Z" transform="translate(-1.667 -2)" fill="#fff" opacity="0.4"/>
    </g>
  </g>
</svg>
