<svg xmlns="http://www.w3.org/2000/svg" width="24" height="24" viewBox="0 0 24 24">
  <g id="Group_24899" data-name="Group 24899" transform="translate(-877 -564)">
    <rect id="Rectangle_5232" data-name="Rectangle 5232" width="24" height="24" transform="translate(877 564)" fill="none"/>
    <g id="Group_24902" data-name="Group 24902" transform="translate(879 565)">
      <path id="Path_166225" data-name="Path 166225" d="M9.225,12.7l3,4.868a.412.412,0,0,0,.419.2.417.417,0,0,0,.354-.3L16.752,4.787a.428.428,0,0,0-.109-.431.42.42,0,0,0-.42-.108L3.54,7.962a.434.434,0,0,0-.107.783l4.924,3.08,4.351-4.4a.616.616,0,1,1,.876.866ZM12.581,19a1.639,1.639,0,0,1-1.4-.789L8,13.049,2.781,9.787a1.664,1.664,0,0,1,.413-3.007L15.876,3.067a1.659,1.659,0,0,1,2.055,2.069L14.178,17.809a1.639,1.639,0,0,1-1.37,1.176A1.783,1.783,0,0,1,12.581,19Z" transform="translate(0)" fill="#4e7eff" fill-rule="evenodd"/>
    </g>
  </g>
</svg>
