<svg xmlns="http://www.w3.org/2000/svg" width="121.288" height="16" viewBox="0 0 121.288 16">
  <g id="Group_24895" data-name="Group 24895" transform="translate(-831 -253)">
    <g id="Group_24887" data-name="Group 24887" transform="translate(691 -3039)">
      <path id="Icon_awesome-star" data-name="Icon awesome-star" d="M8.9.556,6.863,4.693,2.3,5.358a1,1,0,0,0-.553,1.706l3.3,3.218-.781,4.546a1,1,0,0,0,1.45,1.053L9.8,13.735l4.084,2.147a1,1,0,0,0,1.45-1.053l-.781-4.546,3.3-3.218A1,1,0,0,0,17.3,5.358l-4.565-.666L10.7.556A1,1,0,0,0,8.9.556Z" transform="translate(138.559 3292.001)" fill="#ffce00"/>
      <path id="Icon_awesome-star-2" data-name="Icon awesome-star" d="M8.9.556,6.863,4.693,2.3,5.358a1,1,0,0,0-.553,1.706l3.3,3.218-.781,4.546a1,1,0,0,0,1.45,1.053L9.8,13.735l4.084,2.147a1,1,0,0,0,1.45-1.053l-.781-4.546,3.3-3.218A1,1,0,0,0,17.3,5.358l-4.565-.666L10.7.556A1,1,0,0,0,8.9.556Z" transform="translate(164.702 3292.001)" fill="#ffce00"/>
      <path id="Icon_awesome-star-3" data-name="Icon awesome-star" d="M8.9.556,6.863,4.693,2.3,5.358a1,1,0,0,0-.553,1.706l3.3,3.218-.781,4.546a1,1,0,0,0,1.45,1.053L9.8,13.735l4.084,2.147a1,1,0,0,0,1.45-1.053l-.781-4.546,3.3-3.218A1,1,0,0,0,17.3,5.358l-4.565-.666L10.7.556A1,1,0,0,0,8.9.556Z" transform="translate(190.844 3292.001)" fill="#ffce00"/>
      <path id="Icon_awesome-star-4" data-name="Icon awesome-star" d="M8.9.556,6.863,4.693,2.3,5.358a1,1,0,0,0-.553,1.706l3.3,3.218-.781,4.546a1,1,0,0,0,1.45,1.053L9.8,13.735l4.084,2.147a1,1,0,0,0,1.45-1.053l-.781-4.546,3.3-3.218A1,1,0,0,0,17.3,5.358l-4.565-.666L10.7.556A1,1,0,0,0,8.9.556Z" transform="translate(216.987 3292.001)" fill="#ffce00"/>
      <path id="Icon_awesome-star-5" data-name="Icon awesome-star" d="M8.9.556,6.863,4.693,2.3,5.358a1,1,0,0,0-.553,1.706l3.3,3.218-.781,4.546a1,1,0,0,0,1.45,1.053L9.8,13.735l4.084,2.147a1,1,0,0,0,1.45-1.053l-.781-4.546,3.3-3.218A1,1,0,0,0,17.3,5.358l-4.565-.666L10.7.556A1,1,0,0,0,8.9.556Z" transform="translate(243.13 3292.001)" fill="#ddd"/>
    </g>
  </g>
</svg>
