<svg xmlns="http://www.w3.org/2000/svg" width="16" height="15.241" viewBox="0 0 16 15.241">
  <g id="Group_24898" data-name="Group 24898" transform="translate(-2 -3)">
    <g id="Group_24897" data-name="Group 24897" transform="translate(2 3)">
      <path id="Path_166224" data-name="Path 166224" d="M3.425,10.13C4.521,13.539,8.85,16.3,10,16.978c1.154-.689,5.514-3.476,6.575-6.845.7-2.177.05-4.935-2.518-5.763a4.133,4.133,0,0,0-3.7.619.586.586,0,0,1-.711,0A4.09,4.09,0,0,0,5.937,4.37C3.373,5.2,2.729,7.955,3.425,10.13ZM10,18.241a.585.585,0,0,1-.281-.071c-.245-.134-6.007-3.31-7.411-7.682h0c-.882-2.753.1-6.212,3.269-7.233A5.259,5.259,0,0,1,10,3.812a5.386,5.386,0,0,1,4.417-.558c3.172,1.023,4.157,4.481,3.276,7.233-1.359,4.322-7.163,7.546-7.41,7.681A.581.581,0,0,1,10,18.241Z" transform="translate(-2 -3)" fill="#ff2f3a" fill-rule="evenodd"/>
    </g>
  </g>
</svg>
