<svg xmlns="http://www.w3.org/2000/svg" width="16" height="15.999" viewBox="0 0 16 15.999">
  <g id="Group_24827" data-name="Group 24827" transform="translate(-2 -2)">
    <g id="Group_24826" data-name="Group 24826" transform="translate(2 2)">
      <path id="Path_166210" data-name="Path 166210" d="M9.155,16.458a1.209,1.209,0,0,0,1.7-.016l.578-.576a2.42,2.42,0,0,1,1.7-.7h.824a1.21,1.21,0,0,0,1.209-1.209v-.823a2.384,2.384,0,0,1,.7-1.7l.576-.577a1.208,1.208,0,0,0,0-1.717l-.577-.578a2.393,2.393,0,0,1-.7-1.7V6.044a1.211,1.211,0,0,0-1.209-1.209h-.822a2.393,2.393,0,0,1-1.7-.7l-.578-.578a1.214,1.214,0,0,0-1.717,0l-.575.577a2.4,2.4,0,0,1-1.7.7H6.043A1.211,1.211,0,0,0,4.835,6.044v.82a2.393,2.393,0,0,1-.7,1.7l-.568.569-.017.017a1.21,1.21,0,0,0,.006,1.709l.578.578a2.388,2.388,0,0,1,.7,1.7v.825a1.21,1.21,0,0,0,1.209,1.209h.821a2.392,2.392,0,0,1,1.7.7l.577.575ZM10,18a2.4,2.4,0,0,1-1.7-.7l-.019-.02-.568-.567a1.2,1.2,0,0,0-.85-.35H6.043a2.411,2.411,0,0,1-2.408-2.408v-.825a1.2,1.2,0,0,0-.351-.85l-.575-.574A2.412,2.412,0,0,1,2.681,8.32L2.7,8.3l.582-.584a1.2,1.2,0,0,0,.35-.85v-.82A2.412,2.412,0,0,1,6.043,3.635h.824a1.208,1.208,0,0,0,.853-.352l.572-.574A2.411,2.411,0,0,1,11.7,2.7l.585.585a1.2,1.2,0,0,0,.85.35h.822a2.412,2.412,0,0,1,2.409,2.409v.821a1.2,1.2,0,0,0,.351.852l.574.575A2.409,2.409,0,0,1,17.3,11.7l-.586.585a1.2,1.2,0,0,0-.35.849v.823a2.411,2.411,0,0,1-2.408,2.408h-.825a1.216,1.216,0,0,0-.851.351l-.574.574A2.4,2.4,0,0,1,10,18Z" transform="translate(-2 -2)" fill="#130f26" fill-rule="evenodd"/>
    </g>
    <path id="Path_166211" data-name="Path 166211" d="M9.28,13.993a.6.6,0,0,1-.424-1.024l4.111-4.112a.6.6,0,0,1,.849.849L9.7,13.817A.6.6,0,0,1,9.28,13.993Z" transform="translate(-1.337 -1.337)" fill="#130f26" fill-rule="evenodd"/>
    <path id="Path_166212" data-name="Path 166212" d="M14.3,15.1a.8.8,0,1,1-.007-1.6H14.3a.8.8,0,1,1,0,1.6Z" transform="translate(-2.301 -2.301)" fill="#130f26" fill-rule="evenodd"/>
    <path id="Path_166213" data-name="Path 166213" d="M9.3,10.1A.8.8,0,1,1,9.3,8.5H9.3a.8.8,0,0,1,0,1.6Z" transform="translate(-1.3 -1.301)" fill="#130f26" fill-rule="evenodd"/>
  </g>
</svg>
