<svg xmlns="http://www.w3.org/2000/svg" width="40" height="40" viewBox="0 0 40 40">
  <g id="Group_24822" data-name="Group 24822" transform="translate(-1100 -360)">
    <rect id="Rectangle_5218" data-name="Rectangle 5218" width="40" height="40" rx="8" transform="translate(1100 360)" fill="#ff2f3a" opacity="0.1"/>
    <g id="Group_24821" data-name="Group 24821" transform="translate(-12 -2)">
      <rect id="Rectangle_5217" data-name="Rectangle 5217" width="24" height="24" transform="translate(1120 370)" fill="none"/>
      <g id="Group_24820" data-name="Group 24820" transform="translate(1121 371)">
        <path id="Path_166207" data-name="Path 166207" d="M11.2,20.231c-1.175,0-2.32-.013-3.453-.036a2.572,2.572,0,0,1-2.616-2.452c-.273-2.462-.74-8.264-.745-8.322a.649.649,0,0,1,.6-.7.667.667,0,0,1,.7.6c0,.059.471,5.842.741,8.284a1.276,1.276,0,0,0,1.351,1.3c2.167.046,4.378.049,6.762.005a1.3,1.3,0,0,0,1.409-1.306c.269-2.422.737-8.219.742-8.278a.664.664,0,0,1,.7-.6.651.651,0,0,1,.6.7c-.005.059-.475,5.876-.745,8.316A2.58,2.58,0,0,1,14.559,20.2C13.4,20.22,12.289,20.231,11.2,20.231Z" transform="translate(-0.184 -0.895)" fill="#fc5f67" fill-rule="evenodd"/>
        <path id="Path_166208" data-name="Path 166208" d="M18.35,6.79H3.65a.65.65,0,0,1,0-1.3h14.7a.65.65,0,1,1,0,1.3Z" transform="translate(0 -0.465)" fill="#fc5f67" fill-rule="evenodd"/>
        <path id="Path_166209" data-name="Path 166209" d="M15.952,6.325a2.084,2.084,0,0,1-2.037-1.67L13.7,3.6a.455.455,0,0,0-.435-.3H9.6a.459.459,0,0,0-.444.34l-.2,1.014a2.084,2.084,0,0,1-2.037,1.67.65.65,0,0,1,0-1.3A.781.781,0,0,0,7.68,4.4l.211-1.054A1.771,1.771,0,0,1,9.6,2H13.27a1.762,1.762,0,0,1,1.7,1.305L15.19,4.4a.779.779,0,0,0,.762.626.65.65,0,0,1,0,1.3Z" transform="translate(-0.435)" fill="#fc5f67" fill-rule="evenodd"/>
      </g>
    </g>
  </g>
</svg>
