<svg xmlns="http://www.w3.org/2000/svg" width="16" height="15.293" viewBox="0 0 16 15.293">
  <g id="linkedin" transform="translate(0 -0.5)">
    <path id="Path_68294" data-name="Path 68294" d="M6.488,159.684h3.43V170H6.488Zm0,0" transform="translate(-6.286 -154.209)" fill="#1f1f1f"/>
    <path id="Path_68295" data-name="Path 68295" d="M1.94.5A1.788,1.788,0,1,0,1.9,4.066h.022A1.788,1.788,0,1,0,1.94.5Zm0,0" fill="#1f1f1f"/>
    <path id="Path_68296" data-name="Path 68296" d="M183.494,151.934a3.4,3.4,0,0,0-3.091,1.7v-1.461h-3.43v10.319h3.43v-5.763a2.351,2.351,0,0,1,.113-.837,1.877,1.877,0,0,1,1.76-1.254c1.241,0,1.738.946,1.738,2.333v5.52h3.43v-5.917C187.442,153.408,185.75,151.934,183.494,151.934Zm0,0" transform="translate(-171.442 -146.701)" fill="#1f1f1f"/>
  </g>
</svg>
