<svg xmlns="http://www.w3.org/2000/svg" width="16" height="16" viewBox="0 0 16 16">
  <path id="Path_68291" data-name="Path 68291" d="M15.952,4.7A5.873,5.873,0,0,0,15.58,2.76a3.921,3.921,0,0,0-.923-1.417A3.922,3.922,0,0,0,13.24.42,5.872,5.872,0,0,0,11.3.048C10.445.009,10.173,0,8,0S5.555.009,4.7.048A5.874,5.874,0,0,0,2.76.42a3.921,3.921,0,0,0-1.417.923A3.922,3.922,0,0,0,.42,2.76,5.873,5.873,0,0,0,.048,4.7C.009,5.555,0,5.827,0,8s.009,2.445.048,3.3A5.872,5.872,0,0,0,.42,13.24a3.92,3.92,0,0,0,.923,1.417,3.92,3.92,0,0,0,1.417.923,5.87,5.87,0,0,0,1.942.372C5.555,15.991,5.828,16,8,16s2.445-.009,3.3-.048a5.871,5.871,0,0,0,1.942-.372,4.09,4.09,0,0,0,2.34-2.34,5.871,5.871,0,0,0,.372-1.942c.039-.853.048-1.126.048-3.3S15.991,5.555,15.952,4.7Zm-1.44,6.531a4.426,4.426,0,0,1-.275,1.485,2.649,2.649,0,0,1-1.518,1.518,4.426,4.426,0,0,1-1.485.275c-.843.039-1.1.047-3.233.047s-2.389-.008-3.233-.047a4.428,4.428,0,0,1-1.485-.275,2.479,2.479,0,0,1-.92-.6,2.478,2.478,0,0,1-.6-.92,4.426,4.426,0,0,1-.275-1.485c-.038-.844-.047-1.1-.047-3.233s.008-2.389.047-3.233a4.429,4.429,0,0,1,.275-1.485,2.48,2.48,0,0,1,.6-.92,2.477,2.477,0,0,1,.92-.6,4.425,4.425,0,0,1,1.485-.276c.844-.038,1.1-.047,3.233-.047H8c2.136,0,2.389.008,3.233.047a4.427,4.427,0,0,1,1.485.275,2.48,2.48,0,0,1,.92.6,2.477,2.477,0,0,1,.6.92,4.422,4.422,0,0,1,.276,1.485c.038.844.047,1.1.047,3.233S14.55,10.389,14.512,11.233Zm0,0" fill="#1f1f1f"/>
</svg>
