<svg xmlns="http://www.w3.org/2000/svg" width="16" height="13.003" viewBox="0 0 16 13.003">
  <path id="twitter" d="M5.032,13.5a9.276,9.276,0,0,0,9.34-9.34q0-.213-.009-.424A6.679,6.679,0,0,0,16,2.039a6.548,6.548,0,0,1-1.885.517A3.294,3.294,0,0,0,15.558.74a6.586,6.586,0,0,1-2.084.8A3.286,3.286,0,0,0,7.88,4.531,9.32,9.32,0,0,1,1.113,1.1,3.286,3.286,0,0,0,2.13,5.483,3.258,3.258,0,0,1,.643,5.073c0,.014,0,.027,0,.042A3.284,3.284,0,0,0,3.276,8.333a3.278,3.278,0,0,1-1.483.056,3.286,3.286,0,0,0,3.067,2.28A6.586,6.586,0,0,1,.783,12.074,6.693,6.693,0,0,1,0,12.029,9.293,9.293,0,0,0,5.032,13.5" transform="translate(0 -0.5)" fill="#1f1f1f"/>
</svg>
