<svg xmlns="http://www.w3.org/2000/svg" xmlns:xlink="http://www.w3.org/1999/xlink" width="201" height="372" viewBox="0 0 201 372">
  <defs>
    <clipPath id="clip-path">
      <rect id="Rectangle_5254" data-name="Rectangle 5254" width="201" height="324" transform="translate(-12030 -10656)" fill="#fff" stroke="#707070" stroke-width="1"/>
    </clipPath>
    <clipPath id="clip-path-2">
      <rect id="Rectangle_5255" data-name="Rectangle 5255" width="201" height="48" transform="translate(-12030 -10704)" fill="#fff" stroke="#707070" stroke-width="1"/>
    </clipPath>
  </defs>
  <g id="Group_24989" data-name="Group 24989" transform="translate(12030 10704)">
    <g id="Mask_Group_19" data-name="Mask Group 19" clip-path="url(#clip-path)">
      <g id="Group_24985" data-name="Group 24985" transform="translate(-12030.032 -10697.918)">
        <path id="Path_166235" data-name="Path 166235" d="M420,240h.713a.713.713,0,0,1,.713.713v42.78a.713.713,0,0,1-.713.713H420Z" transform="translate(-220.361 -125.92)" fill="#213744"/>
        <path id="Path_166236" data-name="Path 166236" d="M1.426,322.045H.713A.713.713,0,0,1,0,321.332V294.713A.713.713,0,0,1,.713,294h.713Z" transform="translate(0 -154.252)" fill="#213744"/>
        <path id="Path_166237" data-name="Path 166237" d="M1.426,247.045H.713A.713.713,0,0,1,0,246.332V219.713A.713.713,0,0,1,.713,219h.713Z" transform="translate(0 -114.902)" fill="#213744"/>
        <path id="Path_166239" data-name="Path 166239" d="M3,43.255C3,31.754,3,26,4.512,21.349A30.9,30.9,0,0,1,24.349,1.512C29,0,34.754,0,46.255,0h111.7c11.5,0,17.252,0,21.906,1.512A30.9,30.9,0,0,1,199.7,21.349c1.512,4.654,1.512,10.4,1.512,21.906V364.58c0,11.5,0,17.252-1.512,21.906a30.9,30.9,0,0,1-19.837,19.837c-4.654,1.512-10.4,1.512-21.906,1.512H46.255c-11.5,0-17.252,0-21.906-1.512A30.9,30.9,0,0,1,4.512,386.486C3,381.832,3,376.081,3,364.58Z" transform="translate(-1.574)" fill="#213744"/>
        <path id="Path_166240" data-name="Path 166240" d="M158.673,1.475H46.59c-11.361,0-16.93.006-21.422,1.466A29.946,29.946,0,0,0,5.941,22.167C4.481,26.66,4.475,32.228,4.475,43.59v321.7c0,11.361.006,16.929,1.466,21.422a29.946,29.946,0,0,0,19.226,19.227c4.493,1.46,10.061,1.465,21.422,1.465H158.673c11.361,0,16.929-.006,21.422-1.465a29.946,29.946,0,0,0,19.227-19.227c1.46-4.493,1.465-10.061,1.465-21.422V43.59c0-11.361-.006-16.93-1.465-21.422A29.946,29.946,0,0,0,180.1,2.941C175.6,1.481,170.034,1.475,158.673,1.475ZM5.489,22.021C4,26.6,4,32.265,4,43.59v321.7c0,11.324,0,16.987,1.489,21.569A30.422,30.422,0,0,0,25.021,406.4c4.582,1.489,10.245,1.489,21.569,1.489H158.673c11.324,0,16.987,0,21.569-1.489a30.423,30.423,0,0,0,19.532-19.532c1.489-4.582,1.489-10.245,1.489-21.569V43.59c0-11.324,0-16.987-1.489-21.569A30.422,30.422,0,0,0,180.242,2.489C175.66,1,170,1,158.673,1H46.59C35.265,1,29.6,1,25.021,2.489A30.421,30.421,0,0,0,5.489,22.021Z" transform="translate(-2.099 -0.525)" fill="#8eadc1" fill-rule="evenodd"/>
        <path id="Path_166241" data-name="Path 166241" d="M8,44.928C8,34.311,8,29,9.4,24.707A28.52,28.52,0,0,1,27.707,6.4C32,5,37.311,5,47.928,5h113.6c10.617,0,15.925,0,20.221,1.4a28.52,28.52,0,0,1,18.311,18.311c1.4,4.3,1.4,9.6,1.4,20.221V368.154c0,10.617,0,15.925-1.4,20.221a28.52,28.52,0,0,1-18.311,18.311c-4.3,1.4-9.6,1.4-20.221,1.4H47.928c-10.617,0-15.925,0-20.221-1.4A28.52,28.52,0,0,1,9.4,388.375c-1.4-4.3-1.4-9.6-1.4-20.221Z" transform="translate(-4.197 -2.623)" fill="#8818e2"/>
        <path id="Path_166242" data-name="Path 166242" d="M331,0h2.852V2.377H331Z" transform="translate(-173.665)" fill="#36454c"/>
        <path id="Path_166243" data-name="Path 166243" d="M415,86h2.377v2.852H415Z" transform="translate(-217.737 -45.121)" fill="#36454c"/>
        <path id="Path_166244" data-name="Path 166244" d="M3,86H5.377v2.852H3Z" transform="translate(-1.574 -45.121)" fill="#36454c"/>
        <path id="Path_166245" data-name="Path 166245" d="M3,766H5.377v2.852H3Z" transform="translate(-1.574 -401.896)" fill="#36454c"/>
        <path id="Path_166246" data-name="Path 166246" d="M415,766h2.377v2.852H415Z" transform="translate(-217.737 -401.896)" fill="#36454c"/>
        <path id="Path_166247" data-name="Path 166247" d="M86,853h2.852v2.377H86Z" transform="translate(-45.121 -447.542)" fill="#36454c"/>
        <path id="Rectangle_5253" data-name="Rectangle 5253" d="M0,0H83a0,0,0,0,1,0,0V0A13,13,0,0,1,70,13H13A13,13,0,0,1,0,0V0A0,0,0,0,1,0,0Z" transform="translate(65.033 8.917)" fill="#121515"/>
        <g id="Group_24986" data-name="Group 24986" transform="translate(90.313 10.933)">
          <path id="Path_166248" data-name="Path 166248" d="M246.327,29.655A3.327,3.327,0,1,0,243,26.327,3.327,3.327,0,0,0,246.327,29.655Z" transform="translate(-217.807 -23)" fill="#262c2d" fill-rule="evenodd"/>
          <path id="Path_166249" data-name="Path 166249" d="M247.7,29.784a2.08,2.08,0,1,0-2.08-2.08A2.08,2.08,0,0,0,247.7,29.784Z" transform="translate(-219.185 -24.377)" fill="#121515" fill-rule="evenodd"/>
          <path id="Path_166250" data-name="Path 166250" d="M249.541,28.207a.416.416,0,1,0-.416-.416A.416.416,0,0,0,249.541,28.207Z" transform="translate(-221.021 -25.295)" fill="#636f73" fill-rule="evenodd" opacity="0.4"/>
          <path id="Path_166251" data-name="Path 166251" d="M190,28.426A1.426,1.426,0,0,1,191.426,27h17.587a1.426,1.426,0,0,1,1.426,1.426h0a1.426,1.426,0,0,1-1.426,1.426H191.426A1.426,1.426,0,0,1,190,28.426Z" transform="translate(-190 -25.099)" fill="#262c2d" fill-rule="evenodd"/>
        </g>
      </g>
    </g>
    <g id="Mask_Group_20" data-name="Mask Group 20" clip-path="url(#clip-path-2)">
      <g id="Group_24987" data-name="Group 24987" transform="translate(-12030.032 -10693.917)">
        <path id="Path_166235-2" data-name="Path 166235" d="M420,240h.713a.713.713,0,0,1,.713.713v42.78a.713.713,0,0,1-.713.713H420Z" transform="translate(-220.361 -125.92)" fill="#213744"/>
        <path id="Path_166236-2" data-name="Path 166236" d="M1.426,322.045H.713A.713.713,0,0,1,0,321.332V294.713A.713.713,0,0,1,.713,294h.713Z" transform="translate(0 -154.252)" fill="#213744"/>
        <path id="Path_166237-2" data-name="Path 166237" d="M1.426,247.045H.713A.713.713,0,0,1,0,246.332V219.713A.713.713,0,0,1,.713,219h.713Z" transform="translate(0 -114.902)" fill="#213744"/>
        <path id="Path_166238" data-name="Path 166238" d="M1.426,178.309H.713A.713.713,0,0,1,0,177.6V165.713A.713.713,0,0,1,.713,165h.713Z" transform="translate(0 -86.57)" fill="#213744"/>
        <path id="Path_166239-2" data-name="Path 166239" d="M3,43.255C3,31.754,3,26,4.512,21.349A30.9,30.9,0,0,1,24.349,1.512C29,0,34.754,0,46.255,0h111.7c11.5,0,17.252,0,21.906,1.512A30.9,30.9,0,0,1,199.7,21.349c1.512,4.654,1.512,10.4,1.512,21.906V364.58c0,11.5,0,17.252-1.512,21.906a30.9,30.9,0,0,1-19.837,19.837c-4.654,1.512-10.4,1.512-21.906,1.512H46.255c-11.5,0-17.252,0-21.906-1.512A30.9,30.9,0,0,1,4.512,386.486C3,381.832,3,376.081,3,364.58Z" transform="translate(-1.574)" fill="#213744"/>
        <path id="Path_166240-2" data-name="Path 166240" d="M158.673,1.475H46.59c-11.361,0-16.93.006-21.422,1.466A29.946,29.946,0,0,0,5.941,22.167C4.481,26.66,4.475,32.228,4.475,43.59v321.7c0,11.361.006,16.929,1.466,21.422a29.946,29.946,0,0,0,19.226,19.227c4.493,1.46,10.061,1.465,21.422,1.465H158.673c11.361,0,16.929-.006,21.422-1.465a29.946,29.946,0,0,0,19.227-19.227c1.46-4.493,1.465-10.061,1.465-21.422V43.59c0-11.361-.006-16.93-1.465-21.422A29.946,29.946,0,0,0,180.1,2.941C175.6,1.481,170.034,1.475,158.673,1.475ZM5.489,22.021C4,26.6,4,32.265,4,43.59v321.7c0,11.324,0,16.987,1.489,21.569A30.422,30.422,0,0,0,25.021,406.4c4.582,1.489,10.245,1.489,21.569,1.489H158.673c11.324,0,16.987,0,21.569-1.489a30.423,30.423,0,0,0,19.532-19.532c1.489-4.582,1.489-10.245,1.489-21.569V43.59c0-11.324,0-16.987-1.489-21.569A30.422,30.422,0,0,0,180.242,2.489C175.66,1,170,1,158.673,1H46.59C35.265,1,29.6,1,25.021,2.489A30.421,30.421,0,0,0,5.489,22.021Z" transform="translate(-2.099 -0.525)" fill="#8eadc1" fill-rule="evenodd"/>
        <path id="Path_166241-2" data-name="Path 166241" d="M8,44.928C8,34.311,8,29,9.4,24.707A28.52,28.52,0,0,1,27.707,6.4C32,5,37.311,5,47.928,5h113.6c10.617,0,15.925,0,20.221,1.4a28.52,28.52,0,0,1,18.311,18.311c1.4,4.3,1.4,9.6,1.4,20.221V368.154c0,10.617,0,15.925-1.4,20.221a28.52,28.52,0,0,1-18.311,18.311c-4.3,1.4-9.6,1.4-20.221,1.4H47.928c-10.617,0-15.925,0-20.221-1.4A28.52,28.52,0,0,1,9.4,388.375c-1.4-4.3-1.4-9.6-1.4-20.221Z" transform="translate(-4.197 -2.623)" fill="#8818e2"/>
        <path id="Path_166242-2" data-name="Path 166242" d="M331,0h2.852V2.377H331Z" transform="translate(-173.665)" fill="#36454c"/>
        <path id="Path_166243-2" data-name="Path 166243" d="M415,86h2.377v2.852H415Z" transform="translate(-217.737 -45.121)" fill="#36454c"/>
        <path id="Path_166244-2" data-name="Path 166244" d="M3,86H5.377v2.852H3Z" transform="translate(-1.574 -45.121)" fill="#36454c"/>
        <path id="Path_166245-2" data-name="Path 166245" d="M3,766H5.377v2.852H3Z" transform="translate(-1.574 -401.896)" fill="#36454c"/>
        <path id="Path_166246-2" data-name="Path 166246" d="M415,766h2.377v2.852H415Z" transform="translate(-217.737 -401.896)" fill="#36454c"/>
        <path id="Path_166247-2" data-name="Path 166247" d="M86,853h2.852v2.377H86Z" transform="translate(-45.121 -447.542)" fill="#36454c"/>
        <g id="Group_24986-2" data-name="Group 24986" transform="translate(90.313 10.933)">
          <path id="Path_166248-2" data-name="Path 166248" d="M246.327,29.655A3.327,3.327,0,1,0,243,26.327,3.327,3.327,0,0,0,246.327,29.655Z" transform="translate(-217.807 -23)" fill="#262c2d" fill-rule="evenodd"/>
          <path id="Path_166249-2" data-name="Path 166249" d="M247.7,29.784a2.08,2.08,0,1,0-2.08-2.08A2.08,2.08,0,0,0,247.7,29.784Z" transform="translate(-219.185 -24.377)" fill="#121515" fill-rule="evenodd"/>
          <path id="Path_166250-2" data-name="Path 166250" d="M249.541,28.207a.416.416,0,1,0-.416-.416A.416.416,0,0,0,249.541,28.207Z" transform="translate(-221.021 -25.295)" fill="#636f73" fill-rule="evenodd" opacity="0.4"/>
          <path id="Path_166251-2" data-name="Path 166251" d="M190,28.426A1.426,1.426,0,0,1,191.426,27h17.587a1.426,1.426,0,0,1,1.426,1.426h0a1.426,1.426,0,0,1-1.426,1.426H191.426A1.426,1.426,0,0,1,190,28.426Z" transform="translate(-190 -25.099)" fill="#262c2d" fill-rule="evenodd"/>
        </g>
      </g>
    </g>
  </g>
</svg>
