<svg xmlns="http://www.w3.org/2000/svg" width="24" height="23.995" viewBox="0 0 24 23.995">
  <path id="Path_68290" data-name="Path 68290" d="M24.079,10.575l.864.864a3.635,3.635,0,0,1,.024,5.1l-.024.024-.012.012-.852.852a1.8,1.8,0,0,0-.528,1.273v1.235a3.617,3.617,0,0,1-3.613,3.613H18.7a1.8,1.8,0,0,0-1.272.527l-.864.864A3.594,3.594,0,0,1,14.007,26a3.636,3.636,0,0,1-2.557-1.043l-.876-.877A1.8,1.8,0,0,0,9.3,23.548H8.065a3.617,3.617,0,0,1-3.613-3.613V18.7a1.848,1.848,0,0,0-.528-1.285l-.864-.852a3.626,3.626,0,0,1-.012-5.111l.876-.877a1.8,1.8,0,0,0,.528-1.284V8.067A3.615,3.615,0,0,1,8.065,4.456H9.3a1.8,1.8,0,0,0,1.272-.529l.864-.864a3.621,3.621,0,0,1,5.114-.011l.876.875a1.8,1.8,0,0,0,1.272.529h1.236a3.615,3.615,0,0,1,3.613,3.611V9.3A1.8,1.8,0,0,0,24.079,10.575ZM10.91,18.135a1.006,1.006,0,0,0,.744-.312l6.17-6.167a1.059,1.059,0,0,0,0-1.489,1.046,1.046,0,0,0-1.477,0l-6.17,6.168a1.057,1.057,0,0,0,0,1.488A1,1,0,0,0,10.91,18.135Zm5.126-1.056a1.05,1.05,0,1,0,1.056-1.044A1.05,1.05,0,0,0,16.036,17.079ZM10.922,9.867a1.05,1.05,0,0,1,0,2.1,1.05,1.05,0,1,1,0-2.1Z" transform="translate(-2 -2.001)" fill="#fff" fill-rule="evenodd"/>
</svg>
